<mxfile host="Electron" agent="Mozilla/5.0 (Windows NT 10.0; Win64; x64) AppleWebKit/537.36 (KHTML, like Gecko) draw.io/24.7.5 Chrome/126.0.6478.183 Electron/31.3.0 Safari/537.36" version="24.7.5">
  <diagram name="Page-1" id="2cc2dc42-3aac-f2a9-1cec-7a8b7cbee084">
    <mxGraphModel dx="3585" dy="2990" grid="1" gridSize="10" guides="1" tooltips="1" connect="1" arrows="1" fold="1" page="1" pageScale="1" pageWidth="1600" pageHeight="900" background="none" math="0" shadow="0">
      <root>
        <mxCell id="0" />
        <mxCell id="1" parent="0" />
        <mxCell id="7026571954dc6520-1" value="I" style="strokeWidth=1;shadow=0;dashed=0;align=center;html=1;shape=mxgraph.mockup.containers.browserWindow;rSize=0;strokeColor=#666666;mainText=,;recursiveResize=0;rounded=0;labelBackgroundColor=none;fontFamily=Verdana;fontSize=12;movable=1;resizable=1;rotatable=1;deletable=1;editable=1;locked=0;connectable=1;container=0;" parent="1" vertex="1">
          <mxGeometry x="30" y="20" width="1550" height="2190" as="geometry" />
        </mxCell>
        <mxCell id="7026571954dc6520-2" value="Page 1" style="strokeWidth=1;shadow=0;dashed=0;align=center;html=1;shape=mxgraph.mockup.containers.anchor;fontSize=17;fontColor=#666666;align=left;" parent="1" vertex="1">
          <mxGeometry x="90" y="32" width="110" height="26" as="geometry" />
        </mxCell>
        <mxCell id="7026571954dc6520-3" value="https://www.devflix.com" style="strokeWidth=1;shadow=0;dashed=0;align=center;html=1;shape=mxgraph.mockup.containers.anchor;rSize=0;fontSize=17;fontColor=#666666;align=left;" parent="1" vertex="1">
          <mxGeometry x="160" y="80" width="250" height="26" as="geometry" />
        </mxCell>
        <mxCell id="7026571954dc6520-4" value="Devflix" style="text;html=1;points=[];align=left;verticalAlign=top;spacingTop=-4;fontSize=45;fontFamily=Verdana" parent="1" vertex="1">
          <mxGeometry x="60" y="160" width="340" height="50" as="geometry" />
        </mxCell>
        <mxCell id="mZABf-t50v4USLrtNJaO-2" value="" style="image;aspect=fixed;html=1;points=[];align=center;fontSize=12;image=img/lib/azure2/general/Image.svg;" parent="1" vertex="1">
          <mxGeometry x="73.63000000000001" y="270" width="814.55" height="560" as="geometry" />
        </mxCell>
        <mxCell id="mZABf-t50v4USLrtNJaO-6" value="" style="rounded=1;whiteSpace=wrap;html=1;" parent="1" vertex="1">
          <mxGeometry x="1010" y="350" width="430" height="410" as="geometry" />
        </mxCell>
        <mxCell id="mZABf-t50v4USLrtNJaO-7" value="********" style="strokeWidth=1;shadow=0;dashed=0;align=center;html=1;shape=mxgraph.mockup.forms.pwField;strokeColor=#999999;mainText=;align=left;fontColor=#666666;fontSize=17;spacingLeft=3;" parent="1" vertex="1">
          <mxGeometry x="1080" y="560" width="290" height="65.5" as="geometry" />
        </mxCell>
        <mxCell id="mZABf-t50v4USLrtNJaO-10" value="&lt;div&gt;&lt;br&gt;&lt;/div&gt;&lt;div&gt;&lt;br&gt;&lt;/div&gt;" style="strokeWidth=1;shadow=0;dashed=0;align=center;html=1;shape=mxgraph.mockup.forms.rrect;rSize=0;fillColor=#eeeeee;strokeColor=#999999;gradientColor=#cccccc;align=left;spacingLeft=4;fontSize=17;fontColor=#666666;labelPosition=right;" parent="1" vertex="1">
          <mxGeometry x="1080" y="660" width="20" height="20" as="geometry" />
        </mxCell>
        <mxCell id="mZABf-t50v4USLrtNJaO-54" value="Mentions Legales" style="fillColor=none;strokeColor=none;html=1;fontColor=#0057D8;align=center;verticalAlign=middle;fontStyle=0;fontSize=17;" parent="1" vertex="1">
          <mxGeometry x="160" y="2120" width="250" height="75" as="geometry" />
        </mxCell>
        <mxCell id="mZABf-t50v4USLrtNJaO-57" value="FAQ" style="fillColor=none;strokeColor=none;html=1;fontColor=#0057D8;align=center;verticalAlign=middle;fontStyle=0;fontSize=17;fontFamily=Helvetica;" parent="1" vertex="1">
          <mxGeometry x="550" y="2120" width="250" height="75" as="geometry" />
        </mxCell>
        <mxCell id="mZABf-t50v4USLrtNJaO-56" value="Contacts" style="fillColor=none;strokeColor=none;html=1;fontColor=#0057D8;align=center;verticalAlign=middle;fontStyle=0;fontSize=17;fontFamily=Helvetica;" parent="1" vertex="1">
          <mxGeometry x="930" y="2120" width="250" height="75" as="geometry" />
        </mxCell>
        <mxCell id="mZABf-t50v4USLrtNJaO-55" value="Carrière&amp;nbsp;" style="fillColor=none;strokeColor=none;html=1;fontColor=#0057D8;align=center;verticalAlign=middle;fontStyle=0;fontSize=17;fontFamily=Helvetica;" parent="1" vertex="1">
          <mxGeometry x="1300" y="2120" width="250" height="75" as="geometry" />
        </mxCell>
        <mxCell id="7026571954dc6520-21" value="" style="verticalLabelPosition=bottom;shadow=0;dashed=0;align=center;html=1;verticalAlign=top;strokeWidth=1;shape=mxgraph.mockup.markup.line;strokeColor=#999999;rounded=0;labelBackgroundColor=none;fillColor=#ffffff;fontFamily=Verdana;fontSize=12;fontColor=#000000;" parent="1" vertex="1">
          <mxGeometry x="30" y="890" width="1860" height="20" as="geometry" />
        </mxCell>
        <mxCell id="7026571954dc6520-31" value="Aucun problème de latence,&#xa;de consomation de données ou de connexion " style="text;points=[];align=center;verticalAlign=top;spacingTop=-4;fontSize=22;fontFamily=Verdana;spacing=0;whiteSpace=wrap;" parent="1" vertex="1">
          <mxGeometry x="300" y="1040" width="380" height="70" as="geometry" />
        </mxCell>
        <mxCell id="7026571954dc6520-36" value="Lorem ipsum dolor sit amet, consectetur adipisicing elit, sed do eiusmod tempor incididunt ut labore et dolore magna aliqua. Ut enim ad minim veniam, quis nostrud exercitation ullamco laboris nisi ut aliquip ex ea commodo consequat. Duis aute irure dolor in reprehenderit in voluptate velit esse cillum dolore eu fugiat nulla pariatur. Excepteur sint occaecat cupidatat non proident, sunt in culpa qui officia deserunt mollit anim id est laborum." style="text;spacingTop=-5;whiteSpace=wrap;html=1;align=left;fontSize=17;fontFamily=Helvetica;fillColor=none;strokeColor=none;rounded=0;shadow=1;labelBackgroundColor=none;" parent="1" vertex="1">
          <mxGeometry x="285" y="1160" width="420" height="216.88" as="geometry" />
        </mxCell>
        <mxCell id="mZABf-t50v4USLrtNJaO-11" value="" style="image;aspect=fixed;html=1;points=[];align=center;fontSize=12;image=img/lib/azure2/general/Image.svg;" parent="1" vertex="1">
          <mxGeometry x="954.0899999999999" y="1010" width="541.82" height="372.5" as="geometry" />
        </mxCell>
        <mxCell id="mZABf-t50v4USLrtNJaO-29" value="&lt;font style=&quot;font-size: 17px;&quot;&gt;Lorem ipsum dolor sit amet, consectetur adipisicing elit, sed do eiusmod tempor incididunt ut labore et dolore magna aliqua. Ut enim ad minim veniam, quis nostrud exercitation ullamco laboris nisi ut aliquip ex ea commodo consequat. Duis aute irure dolor in reprehenderit in voluptate velit esse cillum dolore eu fugiat nulla pariatur. Excepteur sint occaecat cupidatat non proident, sunt in culpa qui officia deserunt mollit anim id est laborum.&lt;/font&gt;" style="text;spacingTop=-5;whiteSpace=wrap;html=1;align=left;fontSize=12;fontFamily=Helvetica;fillColor=none;strokeColor=none;rounded=0;shadow=1;labelBackgroundColor=none;movable=1;resizable=1;rotatable=1;deletable=1;editable=1;locked=0;connectable=1;" parent="1" vertex="1">
          <mxGeometry x="975" y="1720" width="500" height="150" as="geometry" />
        </mxCell>
        <mxCell id="mZABf-t50v4USLrtNJaO-12" value="La convivialité entre humain" style="text;points=[];align=center;verticalAlign=top;spacingTop=-4;fontSize=22;fontFamily=Verdana;spacing=0;whiteSpace=wrap;movable=1;resizable=1;rotatable=1;deletable=1;editable=1;locked=0;connectable=1;" parent="1" vertex="1">
          <mxGeometry x="1035" y="1630" width="380" height="30" as="geometry" />
        </mxCell>
        <mxCell id="mZABf-t50v4USLrtNJaO-13" value="" style="verticalLabelPosition=bottom;shadow=0;dashed=0;align=center;html=1;verticalAlign=top;strokeWidth=1;shape=mxgraph.mockup.markup.line;strokeColor=#999999;rounded=0;labelBackgroundColor=none;fillColor=#ffffff;fontFamily=Verdana;fontSize=12;fontColor=#000000;" parent="1" vertex="1">
          <mxGeometry x="30" y="1490" width="1540" height="20" as="geometry" />
        </mxCell>
        <mxCell id="mZABf-t50v4USLrtNJaO-60" value="" style="labelPosition=right;align=left;strokeWidth=1;shape=mxgraph.mockup.markup.curlyBrace;html=1;shadow=0;dashed=0;strokeColor=#999999;direction=north;" parent="1" vertex="1">
          <mxGeometry x="1570" y="1161.25" width="90" height="70" as="geometry" />
        </mxCell>
        <mxCell id="mZABf-t50v4USLrtNJaO-63" value="" style="labelPosition=right;align=left;strokeWidth=1;shape=mxgraph.mockup.markup.curlyBrace;html=1;shadow=0;dashed=0;strokeColor=#999999;direction=north;" parent="1" vertex="1">
          <mxGeometry x="1570" y="1720" width="90" height="70" as="geometry" />
        </mxCell>
        <mxCell id="mZABf-t50v4USLrtNJaO-64" value="&lt;span style=&quot;color: rgb(232, 230, 227); font-family: Helvetica, Arial, sans-serif; font-variant-ligatures: none; text-align: center; white-space-collapse: preserve; background-color: rgb(32, 34, 36);&quot;&gt;&lt;font style=&quot;font-size: 18px;&quot;&gt;Genre de pub sur un ton humoristiques  avec image de &#39;mise en situation&#39; généré par IA&lt;/font&gt;&lt;/span&gt;" style="text;spacingTop=-5;whiteSpace=wrap;html=1;align=left;fontSize=12;fontFamily=Helvetica;fillColor=none;strokeColor=none;" parent="1" vertex="1">
          <mxGeometry x="1660" y="1710" width="220" height="120" as="geometry" />
        </mxCell>
        <mxCell id="mP5MzitKxmBqZkLiQn9z-2" value="********" style="strokeWidth=1;shadow=0;dashed=0;align=center;html=1;shape=mxgraph.mockup.forms.pwField;strokeColor=#999999;mainText=;align=left;fontColor=#666666;fontSize=17;spacingLeft=3;" parent="1" vertex="1">
          <mxGeometry x="1080" y="427" width="290" height="65.5" as="geometry" />
        </mxCell>
        <mxCell id="mP5MzitKxmBqZkLiQn9z-3" value="" style="image;aspect=fixed;html=1;points=[];align=center;fontSize=12;image=img/lib/azure2/general/Image.svg;" parent="1" vertex="1">
          <mxGeometry x="209.9999999999999" y="1590" width="541.82" height="372.5" as="geometry" />
        </mxCell>
        <mxCell id="mP5MzitKxmBqZkLiQn9z-4" value="&lt;span style=&quot;color: rgb(232, 230, 227); font-family: Helvetica, Arial, sans-serif; font-variant-ligatures: none; text-align: center; white-space-collapse: preserve; background-color: rgb(32, 34, 36);&quot;&gt;&lt;font style=&quot;font-size: 18px;&quot;&gt;Genre de pub sur un ton humoristiques  avec image de &#39;mise en situation&#39; généré par IA&lt;/font&gt;&lt;/span&gt;" style="text;spacingTop=-5;whiteSpace=wrap;html=1;align=left;fontSize=12;fontFamily=Helvetica;fillColor=none;strokeColor=none;" parent="1" vertex="1">
          <mxGeometry x="1630" y="1160" width="220" height="120" as="geometry" />
        </mxCell>
        <mxCell id="mP5MzitKxmBqZkLiQn9z-6" value="Creer un compte" style="rounded=1;fillColor=#F1F2F4;strokeColor=none;html=1;whiteSpace=wrap;fontColor=#596780;align=center;verticalAlign=middle;fontStyle=0;fontSize=17;sketch=0;fontFamily=Helvetica;" parent="1" vertex="1">
          <mxGeometry x="1170" y="660" width="200" height="60" as="geometry" />
        </mxCell>
        <mxCell id="mP5MzitKxmBqZkLiQn9z-9" value="Courriel" style="text;html=1;align=center;verticalAlign=middle;whiteSpace=wrap;rounded=0;fontFamily=Helvetica;fontSize=17;fontStyle=0;" parent="1" vertex="1">
          <mxGeometry x="1080" y="397" width="100" height="30" as="geometry" />
        </mxCell>
        <mxCell id="mP5MzitKxmBqZkLiQn9z-10" value="Mot de passe" style="text;html=1;align=center;verticalAlign=middle;whiteSpace=wrap;rounded=0;fontFamily=Helvetica;fontSize=17;fontStyle=0;" parent="1" vertex="1">
          <mxGeometry x="1080" y="530" width="140" height="30" as="geometry" />
        </mxCell>
        <mxCell id="mP5MzitKxmBqZkLiQn9z-15" value="" style="rounded=0;whiteSpace=wrap;html=1;align=center;verticalAlign=middle;fontFamily=Helvetica;fontSize=17;fontColor=#0057D8;fontStyle=0;fillColor=none;" parent="1" vertex="1">
          <mxGeometry x="1680" y="260" width="540" height="540" as="geometry" />
        </mxCell>
        <mxCell id="mP5MzitKxmBqZkLiQn9z-18" value="Log in" style="rounded=1;html=1;shadow=0;dashed=0;whiteSpace=wrap;fontSize=30;fillColor=#999999;align=center;strokeColor=#666666;fontColor=#ffffff;strokeWidth=2;verticalAlign=middle;fontFamily=Helvetica;fontStyle=0;" parent="1" vertex="1">
          <mxGeometry x="1980" y="280" width="220" height="90" as="geometry" />
        </mxCell>
        <mxCell id="mP5MzitKxmBqZkLiQn9z-19" value="" style="shape=triangle;direction=south;fillColor=#596780;strokeColor=none;html=1;sketch=0;align=center;verticalAlign=middle;fontFamily=Helvetica;fontSize=17;fontColor=#0057D8;fontStyle=0;" parent="1" vertex="1">
          <mxGeometry x="2170" y="319" width="24" height="12" as="geometry" />
        </mxCell>
        <mxCell id="mP5MzitKxmBqZkLiQn9z-25" style="edgeStyle=orthogonalEdgeStyle;rounded=0;orthogonalLoop=1;jettySize=auto;html=1;exitX=1;exitY=0.5;exitDx=0;exitDy=0;entryX=0.5;entryY=0;entryDx=0;entryDy=0;fontFamily=Helvetica;fontSize=17;fontColor=#0057D8;fontStyle=0;endSize=20;" parent="1" source="mP5MzitKxmBqZkLiQn9z-21" target="mP5MzitKxmBqZkLiQn9z-15" edge="1">
          <mxGeometry relative="1" as="geometry" />
        </mxCell>
        <mxCell id="mP5MzitKxmBqZkLiQn9z-26" value="Click&lt;div style=&quot;font-size: 25px;&quot;&gt;Drop down&lt;/div&gt;" style="edgeLabel;html=1;align=center;verticalAlign=middle;resizable=0;points=[];fontFamily=Helvetica;fontSize=25;fontColor=default;fontStyle=0;fillColor=none;labelBackgroundColor=#293d1f;" parent="mP5MzitKxmBqZkLiQn9z-25" vertex="1" connectable="0">
          <mxGeometry x="-0.0455" relative="1" as="geometry">
            <mxPoint as="offset" />
          </mxGeometry>
        </mxCell>
        <mxCell id="mP5MzitKxmBqZkLiQn9z-21" value="Log in" style="rounded=1;html=1;shadow=0;dashed=0;whiteSpace=wrap;fontSize=30;fillColor=#666666;align=center;strokeColor=#4D4D4D;fontColor=#ffffff;verticalAlign=middle;fontFamily=Helvetica;fontStyle=0;" parent="1" vertex="1">
          <mxGeometry x="1330" y="160" width="220" height="90" as="geometry" />
        </mxCell>
        <mxCell id="mP5MzitKxmBqZkLiQn9z-24" value="" style="shape=triangle;direction=south;fillColor=#f5f5f5;strokeColor=#666666;html=1;sketch=0;align=center;verticalAlign=middle;fontFamily=Helvetica;fontSize=17;fontColor=#333333;fontStyle=0;" parent="1" vertex="1">
          <mxGeometry x="1520" y="199" width="24" height="12" as="geometry" />
        </mxCell>
        <mxCell id="mP5MzitKxmBqZkLiQn9z-29" value="" style="rounded=1;whiteSpace=wrap;html=1;" parent="1" vertex="1">
          <mxGeometry x="1770" y="370" width="430" height="410" as="geometry" />
        </mxCell>
        <mxCell id="mP5MzitKxmBqZkLiQn9z-30" value="********" style="strokeWidth=1;shadow=0;dashed=0;align=center;html=1;shape=mxgraph.mockup.forms.pwField;strokeColor=#999999;mainText=;align=left;fontColor=#666666;fontSize=17;spacingLeft=3;" parent="1" vertex="1">
          <mxGeometry x="1840" y="580" width="290" height="65.5" as="geometry" />
        </mxCell>
        <mxCell id="mP5MzitKxmBqZkLiQn9z-33" value="********" style="strokeWidth=1;shadow=0;dashed=0;align=center;html=1;shape=mxgraph.mockup.forms.pwField;strokeColor=#999999;mainText=;align=left;fontColor=#666666;fontSize=17;spacingLeft=3;" parent="1" vertex="1">
          <mxGeometry x="1840" y="447" width="290" height="65.5" as="geometry" />
        </mxCell>
        <mxCell id="mP5MzitKxmBqZkLiQn9z-34" value="Connexion&amp;nbsp;" style="rounded=1;fillColor=#F1F2F4;strokeColor=none;html=1;whiteSpace=wrap;fontColor=#596780;align=center;verticalAlign=middle;fontStyle=0;fontSize=17;sketch=0;fontFamily=Helvetica;" parent="1" vertex="1">
          <mxGeometry x="1885" y="690" width="200" height="60" as="geometry" />
        </mxCell>
        <mxCell id="mP5MzitKxmBqZkLiQn9z-35" value="Courriel" style="text;html=1;align=center;verticalAlign=middle;whiteSpace=wrap;rounded=0;fontFamily=Helvetica;fontSize=17;fontStyle=0;" parent="1" vertex="1">
          <mxGeometry x="1840" y="417" width="100" height="30" as="geometry" />
        </mxCell>
        <mxCell id="mP5MzitKxmBqZkLiQn9z-36" value="Mot de passe" style="text;html=1;align=center;verticalAlign=middle;whiteSpace=wrap;rounded=0;fontFamily=Helvetica;fontSize=17;fontStyle=0;" parent="1" vertex="1">
          <mxGeometry x="1840" y="550" width="140" height="30" as="geometry" />
        </mxCell>
        <mxCell id="mZABf-t50v4USLrtNJaO-58" value="C14" style="strokeWidth=1;shadow=0;dashed=0;align=center;html=1;shape=mxgraph.mockup.text.callout;linkText=;textSize=17;textColor=#666666;callDir=NE;callStyle=line;fontSize=17;fontColor=#ffffff;align=right;verticalAlign=top;strokeColor=#2D7600;fillColor=#60a917;" parent="1" vertex="1">
          <mxGeometry x="2080" y="625.5" width="230" height="84.5" as="geometry" />
        </mxCell>
        <mxCell id="mZABf-t50v4USLrtNJaO-59" value="C15&lt;div style=&quot;font-size: 20px;&quot;&gt;&lt;br style=&quot;font-size: 20px;&quot;&gt;&lt;/div&gt;" style="strokeWidth=1;shadow=0;dashed=0;align=center;html=1;shape=mxgraph.mockup.text.callout;linkText=;textSize=17;textColor=#666666;callDir=NE;callStyle=line;fontSize=20;fontColor=#ffffff;align=right;verticalAlign=top;strokeColor=#2D7600;fillStyle=auto;fillColor=#60a917;" parent="1" vertex="1">
          <mxGeometry x="1350" y="590" width="200" height="110" as="geometry" />
        </mxCell>
        <mxCell id="mP5MzitKxmBqZkLiQn9z-37" value="Mot de passe oublié" style="fillColor=none;strokeColor=none;html=1;fontColor=#0057D8;align=center;verticalAlign=middle;fontStyle=0;fontSize=17;" parent="1" vertex="1">
          <mxGeometry x="1790" y="652.75" width="250" height="30" as="geometry" />
        </mxCell>
        <mxCell id="mP5MzitKxmBqZkLiQn9z-38" value="C16" style="strokeWidth=1;shadow=0;dashed=0;align=center;html=1;shape=mxgraph.mockup.text.callout;linkText=;textSize=17;textColor=#666666;callDir=NE;callStyle=line;fontSize=17;fontColor=#ffffff;align=right;verticalAlign=top;strokeColor=#2D7600;fillColor=#60a917;" parent="1" vertex="1">
          <mxGeometry x="1970" y="590" width="340" height="80" as="geometry" />
        </mxCell>
        <mxCell id="uDYuNsYIodTFdFQBHrxR-16" value="&lt;font style=&quot;font-size: 24px;&quot;&gt;&amp;nbsp; &amp;nbsp;Vue : Accueil&lt;br&gt;&amp;nbsp; &amp;nbsp;Auteur : Mickael Francois&lt;br&gt;&amp;nbsp; &amp;nbsp;Date de création : 2024-08-01&lt;br&gt;&amp;nbsp; &amp;nbsp;Date mise à jour : 2024-08-12&lt;/font&gt;" style="rounded=0;whiteSpace=wrap;html=1;align=left;fillColor=#4D4D4D;strokeColor=#000000;" vertex="1" parent="1">
          <mxGeometry y="-150" width="580" height="150" as="geometry" />
        </mxCell>
      </root>
    </mxGraphModel>
  </diagram>
</mxfile>
